<svg width="1600" height="1000" viewBox="0 0 1600 1000" fill="none" xmlns="http://www.w3.org/2000/svg">
  <rect width="1600" height="1000" rx="64" fill="#0A0D12"/>
  <rect x="42" y="42" width="1516" height="916" rx="42" stroke="rgba(213,145,255,0.2)" stroke-width="2"/>
  <circle cx="316" cy="244" r="186" fill="rgba(213,145,255,0.18)"/>
  <circle cx="1268" cy="768" r="190" fill="rgba(114,242,255,0.14)"/>
  <rect x="144" y="160" width="1312" height="680" rx="34" fill="#10151C"/>
  <rect x="202" y="222" width="498" height="556" rx="26" fill="url(#paint0_linear)"/>
  <rect x="744" y="222" width="654" height="240" rx="26" fill="#161E28"/>
  <rect x="744" y="502" width="654" height="276" rx="26" fill="#161E28"/>
  <path d="M780 606C880 550 982 522 1096 534C1182 544 1266 518 1362 456" stroke="#72F2FF" stroke-width="4"/>
  <path d="M782 668H1356" stroke="rgba(255,255,255,0.12)" stroke-width="2" stroke-dasharray="10 18"/>
  <path d="M300 662L430 412L544 564L650 344" stroke="#FFE173" stroke-width="6" stroke-linecap="round" stroke-linejoin="round"/>
  <text x="144" y="108" fill="#72F2FF" font-family="Arial, sans-serif" font-size="30" letter-spacing="6">MEDIA REACTOR PIPELINE</text>
  <text x="144" y="918" fill="#EFF6FF" font-family="Arial, sans-serif" font-size="68" font-weight="700">Visual production with controlled atmosphere</text>
  <defs>
    <linearGradient id="paint0_linear" x1="202" y1="222" x2="700" y2="778" gradientUnits="userSpaceOnUse">
      <stop stop-color="#1E2330"/>
      <stop offset="0.54" stop-color="#18202B"/>
      <stop offset="1" stop-color="#0D131A"/>
    </linearGradient>
  </defs>
</svg>
